<svg width="143" height="28" viewBox="0 0 143 28" fill="none" xmlns="http://www.w3.org/2000/svg">
<path d="M25.8795 8.62586V18.3953L25.8737 18.3991L25.8718 18.403H25.8776L25.8795 18.4049V18.9545L17.3156 27.5184H17.244V18.403H17.2962L17.244 18.3508V10.7562L19.3666 8.6336H8.63941L8.63747 8.63167H8.63554V9.18699H8.5833L8.6278 9.23149L8.62973 27.59H8.62587L0 18.9641L0.00193492 9.1928L0.00580475 9.19086L0.00773967 9.18699H0.00193492V9.1212L4.5606 4.5548L8.6278 8.62199V8.62393H8.62587L8.6278 8.62586V8.62393L8.62973 8.62199V8.62006L17.2498 0H17.2537L21.5647 4.311L22.6269 5.37327L25.8795 8.62586Z" fill="#C5F501"/>
<path d="M43.1311 18.3972V8.62782L38.8163 4.31295L34.5053 0.00195312H34.5014L30.1807 4.32263L25.8891 8.61427L25.8813 8.62008L25.8794 8.62201L25.8891 8.63362L25.891 8.63556H34.4956V18.3527L34.5478 18.405H34.4956V27.5204H34.5672L43.1311 18.9564V18.4069L43.1292 18.405H43.1234L43.1253 18.4011L43.1311 18.3972Z" fill="#C5F501"/>
<path d="M54.4031 20V7.33538H58.5938L60.4031 13.8154C60.4769 14.0492 60.5508 14.3262 60.6246 14.6462C60.6985 14.9662 60.7723 15.2862 60.8462 15.6062C60.9323 15.9138 61 16.1908 61.0492 16.4369H61.1969C61.2215 16.2277 61.2646 15.9815 61.3262 15.6985C61.3877 15.4031 61.4554 15.0892 61.5292 14.7569C61.6031 14.4246 61.6831 14.1046 61.7692 13.7969L63.5785 7.33538H67.6954V20H64.9815V14C64.9815 13.4462 64.9815 12.8923 64.9815 12.3385C64.9938 11.7723 65.0062 11.28 65.0185 10.8615C65.0431 10.4431 65.0554 10.1723 65.0554 10.0492H64.9077C64.8831 10.1846 64.8215 10.4369 64.7231 10.8062C64.6369 11.1631 64.5385 11.5446 64.4277 11.9508C64.3292 12.3569 64.2369 12.7077 64.1508 13.0031L62.1754 20H59.7754L57.7815 13.0215C57.7077 12.7631 57.6215 12.4615 57.5231 12.1169C57.4369 11.76 57.3508 11.3969 57.2646 11.0277C57.1908 10.6462 57.1169 10.32 57.0431 10.0492H56.8954C56.9077 10.3815 56.92 10.7815 56.9323 11.2492C56.9446 11.7046 56.9569 12.1785 56.9692 12.6708C56.9815 13.1508 56.9877 13.5938 56.9877 14V20H54.4031ZM74.749 20.2215C73.6905 20.2215 72.7921 20.0431 72.0536 19.6862C71.3151 19.3169 70.7551 18.7569 70.3736 18.0062C69.9921 17.2431 69.8013 16.2892 69.8013 15.1446C69.8013 13.9754 69.9921 13.0215 70.3736 12.2831C70.7551 11.5323 71.3151 10.9785 72.0536 10.6215C72.7921 10.2523 73.6905 10.0677 74.749 10.0677C75.8321 10.0677 76.7367 10.2523 77.4628 10.6215C78.2013 10.9785 78.7613 11.5323 79.1428 12.2831C79.5244 13.0215 79.7151 13.9754 79.7151 15.1446C79.7151 16.2892 79.5244 17.2431 79.1428 18.0062C78.7613 18.7569 78.2013 19.3169 77.4628 19.6862C76.7367 20.0431 75.8321 20.2215 74.749 20.2215ZM74.749 18.2277C75.3151 18.2277 75.7644 18.1231 76.0967 17.9138C76.4413 17.7046 76.6936 17.3846 76.8536 16.9538C77.0136 16.5231 77.0936 15.9938 77.0936 15.3662V14.9231C77.0936 14.2954 77.0136 13.7662 76.8536 13.3354C76.6936 12.9046 76.4413 12.5846 76.0967 12.3754C75.7644 12.1538 75.3151 12.0431 74.749 12.0431C74.1951 12.0431 73.7459 12.1538 73.4013 12.3754C73.069 12.5846 72.8228 12.9046 72.6628 13.3354C72.5028 13.7662 72.4228 14.2954 72.4228 14.9231V15.3662C72.4228 15.9938 72.5028 16.5231 72.6628 16.9538C72.8228 17.3846 73.069 17.7046 73.4013 17.9138C73.7459 18.1231 74.1951 18.2277 74.749 18.2277ZM81.6034 20V10.2892H83.7265L83.9296 11.6185H84.0588C84.2803 11.2985 84.545 11.0215 84.8526 10.7877C85.1726 10.5538 85.5296 10.3754 85.9234 10.2523C86.3173 10.1292 86.748 10.0677 87.2157 10.0677C87.8557 10.0677 88.4157 10.1846 88.8957 10.4185C89.3757 10.6523 89.745 11.0215 90.0034 11.5262C90.2742 12.0308 90.4096 12.6892 90.4096 13.5015V20H87.8434V13.9077C87.8434 13.6 87.8065 13.3415 87.7326 13.1323C87.6588 12.9108 87.548 12.7323 87.4003 12.5969C87.265 12.4492 87.0926 12.3446 86.8834 12.2831C86.6742 12.2215 86.4403 12.1908 86.1819 12.1908C85.8003 12.1908 85.4557 12.2831 85.148 12.4677C84.8403 12.6523 84.6003 12.9046 84.428 13.2246C84.2557 13.5446 84.1696 13.9138 84.1696 14.3323V20H81.6034ZM97.1769 20.2215C96.1184 20.2215 95.22 20.0431 94.4815 19.6862C93.743 19.3169 93.183 18.7569 92.8015 18.0062C92.42 17.2431 92.2292 16.2892 92.2292 15.1446C92.2292 13.9754 92.42 13.0215 92.8015 12.2831C93.183 11.5323 93.743 10.9785 94.4815 10.6215C95.22 10.2523 96.1184 10.0677 97.1769 10.0677C98.26 10.0677 99.1646 10.2523 99.8907 10.6215C100.629 10.9785 101.189 11.5323 101.571 12.2831C101.952 13.0215 102.143 13.9754 102.143 15.1446C102.143 16.2892 101.952 17.2431 101.571 18.0062C101.189 18.7569 100.629 19.3169 99.8907 19.6862C99.1646 20.0431 98.26 20.2215 97.1769 20.2215ZM97.1769 18.2277C97.743 18.2277 98.1923 18.1231 98.5246 17.9138C98.8692 17.7046 99.1215 17.3846 99.2815 16.9538C99.4415 16.5231 99.5215 15.9938 99.5215 15.3662V14.9231C99.5215 14.2954 99.4415 13.7662 99.2815 13.3354C99.1215 12.9046 98.8692 12.5846 98.5246 12.3754C98.1923 12.1538 97.743 12.0431 97.1769 12.0431C96.623 12.0431 96.1738 12.1538 95.8292 12.3754C95.4969 12.5846 95.2507 12.9046 95.0907 13.3354C94.9307 13.7662 94.8507 14.2954 94.8507 14.9231V15.3662C94.8507 15.9938 94.9307 16.5231 95.0907 16.9538C95.2507 17.3846 95.4969 17.7046 95.8292 17.9138C96.1738 18.1231 96.623 18.2277 97.1769 18.2277ZM106.93 20.2215C106.314 20.2215 105.816 20.1108 105.434 19.8892C105.053 19.6677 104.776 19.3723 104.604 19.0031C104.431 18.6215 104.345 18.2031 104.345 17.7477V12.2646H103.145V10.2892H104.437L104.917 7.52H106.911V10.2892H108.684V12.2646H106.911V17.3231C106.911 17.6185 106.979 17.8462 107.114 18.0062C107.25 18.1538 107.471 18.2277 107.779 18.2277H108.684V19.9262C108.536 19.9754 108.364 20.0185 108.167 20.0554C107.97 20.1046 107.761 20.1415 107.539 20.1662C107.317 20.2031 107.114 20.2215 106.93 20.2215ZM114.809 20.2215C113.751 20.2215 112.852 20.0431 112.114 19.6862C111.375 19.3169 110.815 18.7569 110.434 18.0062C110.052 17.2431 109.861 16.2892 109.861 15.1446C109.861 13.9754 110.052 13.0215 110.434 12.2831C110.815 11.5323 111.375 10.9785 112.114 10.6215C112.852 10.2523 113.751 10.0677 114.809 10.0677C115.892 10.0677 116.797 10.2523 117.523 10.6215C118.261 10.9785 118.821 11.5323 119.203 12.2831C119.584 13.0215 119.775 13.9754 119.775 15.1446C119.775 16.2892 119.584 17.2431 119.203 18.0062C118.821 18.7569 118.261 19.3169 117.523 19.6862C116.797 20.0431 115.892 20.2215 114.809 20.2215ZM114.809 18.2277C115.375 18.2277 115.824 18.1231 116.157 17.9138C116.501 17.7046 116.754 17.3846 116.914 16.9538C117.074 16.5231 117.154 15.9938 117.154 15.3662V14.9231C117.154 14.2954 117.074 13.7662 116.914 13.3354C116.754 12.9046 116.501 12.5846 116.157 12.3754C115.824 12.1538 115.375 12.0431 114.809 12.0431C114.255 12.0431 113.806 12.1538 113.461 12.3754C113.129 12.5846 112.883 12.9046 112.723 13.3354C112.563 13.7662 112.483 14.2954 112.483 14.9231V15.3662C112.483 15.9938 112.563 16.5231 112.723 16.9538C112.883 17.3846 113.129 17.7046 113.461 17.9138C113.806 18.1231 114.255 18.2277 114.809 18.2277ZM121.664 20V10.2892H123.787L123.99 11.6185H124.119C124.34 11.2985 124.605 11.0215 124.913 10.7877C125.233 10.5538 125.59 10.3754 125.984 10.2523C126.377 10.1292 126.808 10.0677 127.276 10.0677C127.916 10.0677 128.476 10.1846 128.956 10.4185C129.436 10.6523 129.805 11.0215 130.064 11.5262C130.334 12.0308 130.47 12.6892 130.47 13.5015V20H127.904V13.9077C127.904 13.6 127.867 13.3415 127.793 13.1323C127.719 12.9108 127.608 12.7323 127.46 12.5969C127.325 12.4492 127.153 12.3446 126.944 12.2831C126.734 12.2215 126.5 12.1908 126.242 12.1908C125.86 12.1908 125.516 12.2831 125.208 12.4677C124.9 12.6523 124.66 12.9046 124.488 13.2246C124.316 13.5446 124.23 13.9138 124.23 14.3323V20H121.664ZM137.182 20.2215C136.111 20.2215 135.212 20.0431 134.486 19.6862C133.76 19.3169 133.212 18.7569 132.843 18.0062C132.474 17.2554 132.289 16.3015 132.289 15.1446C132.289 13.9754 132.474 13.0215 132.843 12.2831C133.212 11.5323 133.754 10.9785 134.468 10.6215C135.194 10.2523 136.08 10.0677 137.126 10.0677C138.111 10.0677 138.942 10.2462 139.619 10.6031C140.295 10.9477 140.806 11.4892 141.151 12.2277C141.495 12.9538 141.668 13.8954 141.668 15.0523V15.7169H134.892C134.917 16.2831 135.003 16.7631 135.151 17.1569C135.311 17.5508 135.551 17.8462 135.871 18.0431C136.203 18.2277 136.64 18.32 137.182 18.32C137.477 18.32 137.742 18.2831 137.975 18.2092C138.222 18.1354 138.431 18.0246 138.603 17.8769C138.775 17.7292 138.911 17.5446 139.009 17.3231C139.108 17.1015 139.157 16.8492 139.157 16.5662H141.668C141.668 17.1815 141.557 17.7169 141.335 18.1723C141.114 18.6277 140.806 19.0092 140.412 19.3169C140.019 19.6123 139.545 19.84 138.991 20C138.449 20.1477 137.846 20.2215 137.182 20.2215ZM134.929 14.0923H139.028C139.028 13.7231 138.979 13.4031 138.88 13.1323C138.794 12.8615 138.671 12.64 138.511 12.4677C138.351 12.2954 138.154 12.1723 137.92 12.0985C137.699 12.0123 137.446 11.9692 137.163 11.9692C136.695 11.9692 136.302 12.0492 135.982 12.2092C135.674 12.3569 135.434 12.5908 135.262 12.9108C135.102 13.2185 134.991 13.6123 134.929 14.0923Z" fill="#E9EAE8"/>
</svg>
