<svg xmlns="http://www.w3.org/2000/svg" viewBox="0 0 222.91 142.59"><defs><style>.cls-1{fill:#c5f501;}</style></defs><g id="Layer_2" data-name="Layer 2"><g id="Layer_1-2" data-name="Layer 1"><polygon class="cls-1" points="133.75 44.58 133.75 95.07 133.72 95.09 133.71 95.11 133.74 95.11 133.75 95.12 133.75 97.96 89.49 142.22 89.12 142.22 89.12 95.11 89.39 95.11 89.12 94.84 89.12 55.59 100.09 44.62 44.65 44.62 44.64 44.61 44.63 44.61 44.63 47.48 44.36 47.48 44.59 47.71 44.6 142.59 44.58 142.59 0 98.01 0.01 47.51 0.03 47.5 0.04 47.48 0.01 47.48 0.01 47.14 23.57 23.54 44.59 44.56 44.59 44.57 44.58 44.57 44.59 44.58 44.59 44.57 44.6 44.56 44.6 44.55 89.15 0 89.17 0 111.45 22.28 116.94 27.77 133.75 44.58"/><polygon class="cls-1" points="222.91 95.08 222.91 44.59 200.61 22.29 178.33 0.01 178.31 0.01 155.98 22.34 133.8 44.52 133.76 44.55 133.75 44.56 133.8 44.62 133.81 44.63 178.28 44.63 178.28 94.85 178.55 95.12 178.28 95.12 178.28 142.23 178.65 142.23 222.91 97.97 222.91 95.13 222.9 95.12 222.87 95.12 222.88 95.1 222.91 95.08"/></g></g></svg>