<svg width="44" height="28" viewBox="0 0 44 28" fill="none" xmlns="http://www.w3.org/2000/svg">
<path d="M25.8795 8.62586V18.3953L25.8737 18.3991L25.8718 18.403H25.8776L25.8795 18.4049V18.9545L17.3156 27.5184H17.244V18.403H17.2962L17.244 18.3508V10.7562L19.3666 8.6336H8.63941L8.63747 8.63167H8.63554V9.18699H8.5833L8.6278 9.23149L8.62973 27.59H8.62587L0 18.9641L0.00193492 9.1928L0.00580475 9.19086L0.00773967 9.18699H0.00193492V9.1212L4.5606 4.5548L8.6278 8.62199V8.62393H8.62587L8.6278 8.62586V8.62393L8.62973 8.62199V8.62006L17.2498 0H17.2537L21.5647 4.311L22.6269 5.37327L25.8795 8.62586Z" fill="#C5F501"/>
<path d="M43.1312 18.3972V8.62782L38.8164 4.31295L34.5054 0.00195312H34.5015L30.1808 4.32263L25.8892 8.61427L25.8815 8.62008L25.8795 8.62201L25.8892 8.63362L25.8911 8.63556H34.4957V18.3527L34.5479 18.405H34.4957V27.5204H34.5673L43.1312 18.9564V18.4069L43.1293 18.405H43.1235L43.1254 18.4011L43.1312 18.3972Z" fill="#C5F501"/>
</svg>
